<svg width="480" height="270" viewBox="0 0 480 270" xmlns="http://www.w3.org/2000/svg"><title>training-software-cover</title><g id="Home" fill="none" fill-rule="evenodd"><g id="training-software-cover"><path id="Background" fill="#89C9E5" d="M0 0h480v270H0z"/><g id="imac-icon" transform="translate(140 35)"><circle id="Oval" fill="#EFC75E" cx="100" cy="100" r="100"/><path d="M13.41 149.998C30.702 179.88 62.992 200 100 200s69.296-20.12 86.59-50.002H13.41z" id="Shape" fill="#3B5665"/><path id="Shape" fill="#CCD0D2" d="M84 139.998h34v16H84z"/><path d="M80 155.998h42a4 4 0 0 1 4 4 4 4 0 0 1-4 4H80a4 4 0 0 1-4-4 4 4 0 0 1 4-4z" id="Shape" fill="#E4E7E7"/><path d="M38 45.998h124c3.312 0 6 2.688 6 6v82a6 6 0 0 1-6 6H38a6 6 0 0 1-6-6v-82a6 6 0 0 1 6-6z" id="Shape" fill="#36434F"/><path id="Shape" fill="#E5E6E8" d="M38 51.998h124v68H38v-68z"/><path d="M32 125.998v8a6 6 0 0 0 6 6h124a6 6 0 0 0 6-6v-8H32z" id="Shape" fill="#E4E7E7"/><path id="Shape" fill="#B7BBBD" d="M84 139.998h34v6H84z"/><path id="Rectangle-10" fill="#FFF" d="M124 96h32v24h-32z"/><path id="Rectangle-4" fill="#33B0E6" d="M38 52h124v14H38z"/><path id="Rectangle-5" fill="#58636E" d="M38 52h8v68h-8z"/><path id="Rectangle-9" fill="#FFF" d="M52 96h68v24H52z"/><path id="Rectangle-6" fill="#6DBC82" d="M52 72h32v18H52z"/><circle id="Oval-3" fill="#E5E6E8" cx="68" cy="81" r="5"/><path id="Rectangle-6" fill="#5DA9CB" d="M88 72h32v18H88z"/><path d="M104 86a5 5 0 1 0 0-10 5 5 0 0 0 0 10z" id="Oval-3" fill="#E5E6E8"/><path id="Rectangle-6" fill="#A38AC1" d="M124 72h32v18h-32z"/><path d="M140 86a5 5 0 1 0 0-10 5 5 0 0 0 0 10z" id="Oval-3" fill="#E5E6E8"/><path d="M101.993 120c.005-.166.007-.333.007-.5 0-9.113-7.387-16.5-16.5-16.5S69 110.387 69 119.5c0 .167.002.334.007.5h32.986z" id="Combined-Shape" fill="#CA6767"/><path id="Rectangle-11" fill="#D8D8D8" d="M128 100h24v2h-24z"/><path id="Rectangle-12" fill="#D8D8D8" d="M128 106h24v2h-24z"/><path id="Rectangle-13" fill="#D8D8D8" d="M128 112h16v2h-16z"/><path d="M73.546 108.127A16.444 16.444 0 0 0 69.006 120h15.565l-11.024-11.873z" id="Combined-Shape" fill="#EFC75E"/><path d="M85 103.007c.166-.005.333-.007.5-.007 9.113 0 16.5 7.387 16.5 16.5 0 .167-.002.334-.007.5H85v-16.993z" id="Combined-Shape" fill="#6DBC82"/></g></g></g></svg>